<svg width="55" height="36" viewBox="0 0 55 36" fill="none" xmlns="http://www.w3.org/2000/svg">
<g id="BGMI logo 2 1" clip-path="url(#clip0_1087_14646)">
<g id="Group">
<g id="Layer_1">
<g id="Group_2">
<g id="Group_3">
<path id="Vector" d="M53.1448 36H2.22062C1.47579 36 0.896484 35.3931 0.896484 34.6759V1.32414C0.896484 0.606897 1.50338 0 2.22062 0H53.1448C53.8896 0 54.4689 0.606897 54.4689 1.32414V34.6483C54.4689 35.3931 53.862 35.9724 53.1448 35.9724V36ZM3.54476 33.3517H51.8482V2.64828H3.54476V33.3793V33.3517Z" fill="#FBBF24"/>
<g id="Group_4">
<path id="Vector_2" d="M13.7793 22.8686H6.44141V5.37891H13.7793C15.3518 5.37891 16.4276 6.45477 16.4276 8.02718V11.8617C16.4276 12.8824 15.9586 13.6824 15.1862 13.8755V13.9306C15.9586 14.1237 16.4276 14.9513 16.4276 15.972V20.1927C16.4276 21.7651 15.3518 22.841 13.7793 22.841V22.8686ZM12.6759 12.2479V8.96511C12.6759 8.90994 12.6759 8.88235 12.5931 8.88235H10.1655V12.3306H12.5931C12.6483 12.3306 12.6759 12.3306 12.6759 12.2479ZM12.6759 19.2824V15.641C12.6759 15.5858 12.6759 15.5582 12.5931 15.5582H10.1655V19.3651H12.5931C12.6483 19.3651 12.6759 19.3651 12.6759 19.2824Z" fill="#FBBF24"/>
<path id="Vector_3" d="M25.7246 22.9242H21.035C19.4626 22.9242 18.3867 21.8484 18.3867 20.2759V7.97249C18.3867 6.40008 19.4626 5.32422 21.035 5.32422H25.7246C27.2971 5.32422 28.3729 6.40008 28.3729 7.97249V11.007H24.6212V8.9656C24.6212 8.91043 24.6212 8.88284 24.5384 8.88284H22.1936C22.1384 8.88284 22.1109 8.88284 22.1109 8.9656V19.3104C22.1109 19.3656 22.1109 19.3932 22.1936 19.3932H24.5384C24.5936 19.3932 24.6212 19.3932 24.6212 19.3104V16.3863H23.0488V12.8828H28.3729V20.2759C28.3729 21.8484 27.2971 22.9242 25.7246 22.9242Z" fill="#FBBF24"/>
<path id="Vector_4" d="M39.6269 22.8686V14.2617L39.5441 14.703L37.4752 22.8686H36.0407L33.9993 14.703L33.9165 14.2617V22.8686H30.3027V5.37891H34.6338L36.7855 14.041L38.9372 5.37891H43.2683V22.8686H39.6545H39.6269Z" fill="#FBBF24"/>
<path id="Vector_5" d="M45.1992 22.8686V5.37891H48.9509V22.8686H45.1992Z" fill="#FBBF24"/>
</g>
</g>
<g id="Group_5">
<path id="Vector_6" d="M34.1647 26.373H33.4199V28.4144H34.1647V26.373Z" fill="#FBBF24"/>
<path id="Vector_7" d="M24.6484 27.8891H25.2277L24.9243 26.7305L24.6484 27.8891Z" fill="#FBBF24"/>
<path id="Vector_8" d="M22.0822 26.373H21.3926V27.4213H22.0822V26.373Z" fill="#FBBF24"/>
<path id="Vector_9" d="M6.44141 24.2207V30.6207H48.9517V24.2207H6.44141ZM18.9104 29.131V28.9655L18.3035 27.6966H18.1931V28.9379L18.3035 29.131H17.4207L17.5311 28.9379V25.931L17.4207 25.7379H18.3035L18.1931 25.931V27.0069H18.3035L18.9104 25.8759V25.7104H19.7931L19.6276 25.931L18.8828 27.2552L19.6828 28.8552L19.9035 29.131H18.9104ZM21.9173 29.131V28.9104L21.6414 28.1379H21.3931V28.9379L21.5035 29.131H20.6207L20.7311 28.9379V25.931L20.6207 25.7379H22.3035L22.7724 26.2069V27.669L22.3586 28.0828L22.6621 28.8828L22.8552 29.131H21.9173ZM25.4483 29.131V28.8828C25.4759 28.8828 25.3931 28.5517 25.3931 28.5517H24.4552L24.3724 28.8828V29.131C24.4 29.131 23.5449 29.131 23.5449 29.131L23.6276 28.9379L24.4276 25.9035L24.3449 25.7104H25.4483L25.3655 25.9035L26.1655 28.9379L26.2483 29.131H25.3931H25.4483ZM29.0897 26.4828L28.8966 26.3724H27.8759V27.0621H28.5655L28.7586 26.9517V27.8345L28.5655 27.7242H27.8759V28.8828L27.9862 29.0759H27.1035L27.2138 28.8828V25.8759L27.1035 25.6828H29.1173V26.4828H29.0897ZM32.0138 26.4828L31.8207 26.3724H31.269V28.9104L31.3793 29.1035H30.4966L30.6069 28.9104V26.3724H30.0552L29.8621 26.4828V25.6828H32.0414V26.4828H32.0138ZM34.8552 28.6345L34.3862 29.1035H33.2276L32.7586 28.6345V26.1793L33.2276 25.7104H34.3862L34.8552 26.1793V28.6345ZM37.9724 29.131H37.1448L36.4276 27.2828V28.9104L36.538 29.1035H35.6552L35.7655 28.9104V25.9035L35.6552 25.7104H36.4828L37.2 27.5586V25.931L37.0897 25.7379H37.9724L37.8621 25.931V28.9379L37.9724 29.131Z" fill="#FBBF24"/>
</g>
</g>
</g>
</g>
</g>
<defs>
<clipPath id="clip0_1087_14646">
<rect width="53.5724" height="36" fill="white" transform="translate(0.896484)"/>
</clipPath>
</defs>
</svg>
