<svg xmlns="http://www.w3.org/2000/svg"
width="20" height="20" viewBox="0 0 20 20" fill="none">
<path d="M13.125 14.375V17.1875C13.125 17.7053 12.7053 18.125 12.1875 18.125H4.0625C3.54473 18.125 3.125 17.7053 3.125 17.1875V6.5625C3.125 6.04473 3.54473 5.625 4.0625 5.625H5.625C6.05089 5.625 6.46849 5.6605 6.875 5.7287M13.125 14.375H15.9375C16.4553 14.375 16.875 13.9553 16.875 13.4375V9.375C16.875 5.65876 14.1721 2.5738 10.625 1.9787C10.2185 1.9105 9.80089 1.875 9.375 1.875H7.8125C7.29473 1.875 6.875 2.29473 6.875 2.8125V5.7287M13.125 14.375H7.8125C7.29473 14.375 6.875 13.9553 6.875 13.4375V5.7287M16.875 11.25V9.6875C16.875 8.1342 15.6158 6.875 14.0625 6.875H12.8125C12.2947 6.875 11.875 6.45527 11.875 5.9375V4.6875C11.875 3.1342 10.6158 1.875 9.0625 1.875H8.125" stroke="#888888" stroke-width="1.5" stroke-linecap="round" stroke-linejoin="round"/>
</svg>