<svg width="24" height="24" viewBox="0 0 24 24" fill="none" xmlns="http://www.w3.org/2000/svg">
<g id="Cube">
<g id="Icon">
<path d="M13.2 20.3994C13.2 20.8153 13.4153 21.2015 13.7691 21.4202C14.1229 21.6388 14.5646 21.6587 14.9366 21.4727L19.7366 19.0727C20.1431 18.8695 20.3999 18.4539 20.3999 17.9994V11.0827C20.3999 10.6668 20.1846 10.2806 19.8308 10.0619C19.477 9.84327 19.0353 9.82339 18.6633 10.0094L13.8633 12.4094C13.4568 12.6127 13.2 13.0282 13.2 13.4827V20.3994Z" fill="#323232"/>
<path d="M18.2533 7.53109C18.6599 7.32782 18.9167 6.9123 18.9167 6.45777C18.9167 6.00325 18.6599 5.58773 18.2533 5.38446L12.5366 2.5261C12.1988 2.35718 11.8011 2.35718 11.4633 2.5261L5.7466 5.38446C5.34006 5.58773 5.08325 6.00325 5.08325 6.45777C5.08325 6.9123 5.34006 7.32782 5.7466 7.53109L11.4633 10.3894C11.8011 10.5584 12.1988 10.5584 12.5366 10.3894L18.2533 7.53109Z" fill="#323232"/>
<path d="M5.33663 10.0094C4.96464 9.82339 4.52288 9.84327 4.1691 10.0619C3.81532 10.2806 3.59998 10.6668 3.59998 11.0827V17.9994C3.59998 18.4539 3.85678 18.8695 4.26332 19.0727L9.06331 21.4727C9.43529 21.6587 9.87706 21.6388 10.2308 21.4202C10.5846 21.2015 10.8 20.8153 10.8 20.3994V13.4827C10.8 13.0282 10.5432 12.6127 10.1366 12.4094L5.33663 10.0094Z" fill="#323232"/>
</g>
</g>
</svg>
