<svg width="99" height="121" viewBox="0 0 99 121" fill="none" xmlns="http://www.w3.org/2000/svg">
<g id="Group 1116601973">
<g id="Group">
<path id="Vector" d="M96.1953 54.5287V54.4777C96.1992 53.1994 96.0825 28.4347 96.0471 20.874L96.0138 10.9069L69.3577 17.8525C69.3204 17.36 69.2821 16.8528 69.2449 16.3192C69.136 14.7623 68.1775 13.4536 66.8041 12.8611C66.4882 11.5573 66.0252 10.3144 65.4169 9.14011C62.4955 3.5032 56.3965 0 49.5 0C44.9962 0 40.7533 1.48624 37.5522 4.18304C34.8809 6.43349 33.0327 9.45109 32.2008 12.8601C30.8254 13.4507 29.865 14.7613 29.7542 16.3201C29.7149 16.8872 29.6747 17.4267 29.6354 17.9467L2.98523 10.8549L2.95187 20.5954L2.94402 22.3858C2.84886 42.8507 2.80178 53.6477 2.80374 54.4777V54.5306C1.03889 55.5636 0 57.404 0 59.7712V80.811C0 83.4176 1.32633 84.7439 2.11997 85.305C2.95579 85.8956 3.97507 86.2066 5.06988 86.2066C5.73599 86.2066 6.43741 86.0879 7.18593 85.8613L7.57735 86.6117C10.6008 92.3919 15.5098 96.6976 25.3759 104.165L25.5397 104.288L49.4941 120.413L73.4622 104.286L73.63 104.161C83.4892 96.6976 88.3992 92.3919 91.4207 86.6117L91.8121 85.8652C92.5645 86.0889 93.2611 86.2027 93.9262 86.2027C95.021 86.2027 96.0422 85.8907 96.882 85.2992C97.6707 84.74 98.998 83.4136 99 80.8091V59.7379C99 57.3864 97.9601 55.5548 96.1963 54.5287H96.1953Z" fill="black"/>
<path id="Vector_2" d="M18.3892 76.7276V71.5832C18.3892 70.7866 18.0213 70.1901 17.2944 69.8124C14.0364 68.1162 11.115 66.4269 8.37008 64.6474V60.5428C10.0613 60.4408 11.7624 60.3456 13.4704 60.2564V64.5473L13.6842 64.5257C15.1891 64.3717 16.7116 64.2275 18.2116 64.0951L18.3892 64.0794V59.0752C18.3892 58.4856 18.2106 58.0089 17.8575 57.6606C17.3748 57.1848 16.5665 56.9611 15.4383 56.968C12.4011 57.02 9.38641 57.0798 6.40021 57.1456C4.49998 57.1819 3.53663 58.0648 3.53663 59.7718V65.4999C3.53663 66.4063 3.89077 67.1019 4.58925 67.5659C7.33707 69.3631 10.2428 71.0446 13.4704 72.7054V76.8904C11.7693 77.3191 10.0564 77.7851 8.37008 78.2766V73.3401L8.13169 73.3951C6.64742 73.7375 5.14941 74.1024 3.68182 74.4811L3.53564 74.5183V80.8096C3.53564 81.5826 3.74558 82.1232 4.15957 82.4155C4.39992 82.5852 4.70109 82.6706 5.06799 82.6706C5.45843 82.6706 5.92343 82.5744 6.46789 82.3812C9.42565 81.3501 12.4609 80.4123 15.4922 79.5941C17.4415 79.0663 18.3892 78.1275 18.3882 76.7256L18.3892 76.7276ZM14.5711 31.4773V54.3418L14.7624 54.3458C16.2702 54.3713 17.7829 54.3958 19.3005 54.4184L19.4977 54.4213V32.7389L19.3486 32.7046C17.8418 32.3475 16.3173 31.9571 14.8173 31.545L14.5711 31.4773ZM10.3174 54.386C10.3135 52.9822 10.4665 20.6224 10.4665 20.6224L29.6022 25.7159C29.6022 25.6639 29.6002 25.6148 29.6031 25.5618C29.7022 24.1227 29.8013 22.8699 29.8994 21.68L11.4887 16.7798L6.50812 15.4535L6.49046 20.6087C6.49046 20.7863 6.33742 53.0292 6.34233 54.4694C7.65885 54.4399 8.98616 54.4125 10.3184 54.386H10.3174ZM34.4641 59.6167L34.6544 59.6128V56.7355H34.4592C30.2094 56.7689 25.9557 56.813 21.8159 56.8709L21.6246 56.8728V78.102L21.86 78.051C26.0538 77.1435 30.3409 76.4362 34.6014 75.9467L34.7731 75.9281V73.0498L34.5602 73.0714C31.9056 73.3372 29.2264 73.6806 26.5944 74.0896V68.233C28.8311 68.0015 31.1021 67.8013 33.3487 67.6385L33.5282 67.6257V64.7798L33.3232 64.7916C31.0766 64.9201 28.8144 65.0781 26.5944 65.2595V59.8326C29.195 59.7462 31.8418 59.6736 34.465 59.6167H34.4641ZM38.8718 54.6116V35.7928L38.6932 35.7781C37.1991 35.6545 35.6825 35.5024 34.1864 35.3268L33.9696 35.3004V45.7913C33.9696 45.8629 33.9736 45.9395 33.9824 46.0228C31.5485 42.0556 29.3363 38.2395 27.2379 34.3919L27.1928 34.3095L27.1006 34.2929C25.7576 34.0594 24.4067 33.8033 23.0882 33.5316L22.8548 33.4835V54.4674L23.047 54.4694C24.5333 54.488 26.0234 54.5066 27.5175 54.5214L27.7137 54.5233V43.3143C27.7137 43.2515 27.7108 43.1848 27.7049 43.1141C29.7807 46.8155 31.9958 50.5502 34.4533 54.4929L34.5102 54.5832H34.6171C35.968 54.594 37.3218 54.6018 38.6756 54.6097H38.8708L38.8718 54.6116ZM37.5523 56.7169V75.6426L37.7632 75.623C39.3024 75.4837 40.8613 75.3718 42.3975 75.2875L42.581 75.2777V59.4176C44.4037 59.4009 46.2284 59.3892 48.0531 59.3862V64.7131C46.5972 64.721 45.1257 64.7396 43.6728 64.771L43.4825 64.7749V66.6555L45.3033 69.6005C46.4148 71.3977 47.5263 73.195 48.6378 75.0049L48.6947 75.0981H48.8035C50.4154 75.0903 52.0429 75.1119 53.6458 75.1619L54.0059 75.1737L53.8175 74.8666C52.1076 72.0796 50.3702 69.3072 48.8752 66.9302C50.3045 66.9184 51.1492 66.8655 51.5906 66.7615C52.5736 66.5241 53.071 65.9688 53.071 65.1104V58.5416C53.071 57.3084 52.0625 56.6825 50.0749 56.6825C45.9998 56.6825 41.8482 56.6923 37.7436 56.7159H37.5513L37.5523 56.7169ZM56.377 56.6933V75.2767L56.5604 75.2865C58.0967 75.3689 59.6555 75.4817 61.1947 75.62L61.4057 75.6396V56.7169H61.2134C59.6673 56.7071 58.1202 56.7002 56.5712 56.6953H56.376L56.377 56.6933ZM77.7238 78.1785L77.9593 78.2305V75.0618L77.8023 75.0304C75.1761 74.5223 72.4911 74.0779 69.8227 73.71V67.9799C72.0546 68.1849 74.304 68.4253 76.5113 68.697L76.7291 68.7235V65.6461L76.5535 65.6294C74.3276 65.4126 72.0644 65.2203 69.8227 65.0594V59.7502C72.4028 59.8257 75.0329 59.9189 77.6404 60.0268L77.8425 60.0356V56.8787L77.6503 56.8758C73.4927 56.8179 69.241 56.7718 65.0128 56.7394H64.8166V75.9948L64.9883 76.0154C69.2508 76.5235 73.5349 77.2514 77.7229 78.1775L77.7238 78.1785ZM69.0948 98.1726L49.4952 111.358L29.9053 98.1726C21.2057 91.588 17.0158 87.9573 14.6074 83.7978C13.3036 84.1686 12.0038 84.5639 10.7118 84.9769C13.3683 90.0576 17.8192 94.0131 27.5048 101.344L27.593 101.41L27.6853 101.472L47.2751 114.658L49.4952 116.153L51.7152 114.658L71.3149 101.472L71.4071 101.41L71.4954 101.343C81.1809 94.0121 85.6308 90.0566 88.2864 84.976C86.9954 84.5639 85.6955 84.1696 84.3928 83.7968C81.9854 87.9553 77.7955 91.587 69.0958 98.1726H69.0948ZM69.395 25.607L88.5327 20.6215C88.5327 20.6215 88.6837 52.3219 88.6818 53.4393C88.7171 53.5757 88.7524 53.712 88.7877 53.8494L88.927 54.3909C90.1719 54.4154 91.4158 54.4419 92.6509 54.4684C92.6529 54.4684 92.6549 54.4684 92.6568 54.4684C92.6617 53.0273 92.5097 20.7853 92.5077 20.6077L92.491 15.4809L87.53 16.7729L69.0899 21.577C69.19 22.7973 69.292 24.0805 69.394 25.5618C69.394 25.5775 69.394 25.5913 69.394 25.606L69.395 25.607ZM90.7988 65.132C92.2654 65.3066 93.7605 65.496 95.2418 65.6941L95.4616 65.7236V59.7404C95.4616 58.055 94.4913 57.1829 92.5793 57.1475C89.5931 57.0808 86.5785 57.021 83.5403 56.97C82.4386 56.9631 81.6312 57.1858 81.1505 57.6596C80.7915 58.0138 80.609 58.4994 80.61 59.1047V63.9028C80.61 64.6533 80.9671 65.3204 81.6744 65.8864C84.8578 68.4027 87.7871 71.0083 90.6291 73.8522V78.2786C88.9427 77.7871 87.2299 77.3211 85.5288 76.8924V72.2551L85.3718 72.2238C83.8738 71.9295 82.3483 71.6489 80.8366 71.3919L80.61 71.3526V76.7266C80.61 78.1098 81.5773 79.0742 83.4873 79.5902C86.5176 80.4074 89.5539 81.3442 92.5107 82.3753C93.062 82.5705 93.5319 82.6676 93.9263 82.6676C94.2941 82.6676 94.5973 82.5823 94.8386 82.4116C95.2526 82.1202 95.4616 81.5807 95.4616 80.8106V74.6694C95.4616 73.7443 95.1192 72.9222 94.4413 72.2238C91.6081 69.2984 88.6926 66.6281 85.5278 64.0647V60.2554C87.2367 60.3447 88.9368 60.4398 90.6281 60.5418V65.1104L90.7998 65.13L90.7988 65.132ZM33.3948 26.8597C33.3251 27.8653 33.2564 30.4414 33.1868 31.4469C33.1103 32.5408 34.0471 33.2648 35.2832 33.095C40.1402 32.426 44.8226 32.0846 49.4991 32.064C54.1756 32.0846 58.858 32.426 63.715 33.095C64.9501 33.2648 65.8879 32.5408 65.8114 31.4469C65.7417 30.4414 65.6731 27.8653 65.6044 26.8597C65.5848 26.5782 66.453 26.0465 66.4343 25.7659C66.195 22.2823 65.9556 19.9593 65.7172 16.5699C65.6995 16.3168 65.5092 16.1068 65.2581 16.0695C64.744 15.9901 64.229 15.9175 63.714 15.8469C63.556 13.977 63.0557 12.273 62.2758 10.7691C59.9381 6.25647 55.0968 3.54004 49.5001 3.54004C42.0385 3.54004 35.917 8.36859 35.2871 15.8459C34.7721 15.9175 34.2561 15.9901 33.742 16.0686C33.4909 16.1068 33.3016 16.3168 33.2829 16.5689C33.0445 19.9583 32.8052 22.2813 32.5658 25.7649C32.5462 26.0455 33.4144 26.5772 33.3957 26.8587L33.3948 26.8597ZM64.5263 19.4903C64.7901 19.4903 65.005 19.714 65.005 19.9887C65.005 20.2634 64.7901 20.4871 64.5263 20.4871C64.2624 20.4871 64.0475 20.2634 64.0475 19.9887C64.0475 19.714 64.2614 19.4903 64.5263 19.4903ZM64.5263 22.4844C64.7901 22.4844 65.005 22.7081 65.005 22.9828C65.005 23.2574 64.7901 23.4811 64.5263 23.4811C64.2624 23.4811 64.0475 23.2574 64.0475 22.9828C64.0475 22.7081 64.2614 22.4844 64.5263 22.4844ZM38.0369 15.3112C40.0225 14.7001 41.9953 14.3351 43.9672 14.0918C44.9531 13.9515 45.937 13.8966 46.922 13.8201C47.7745 13.7759 48.627 13.7583 49.4785 13.7465C50.331 13.7583 51.1825 13.7759 52.035 13.8201C53.0199 13.8976 54.0039 13.9525 54.9898 14.0918C56.9607 14.3351 58.9335 14.7001 60.92 15.3112C60.922 15.3485 60.924 15.3848 60.9259 15.4221C57.1225 15.0159 53.3015 14.8246 49.4795 14.8423C45.6574 14.8246 41.8354 15.0169 38.033 15.4221C38.035 15.3848 38.0369 15.3485 38.0379 15.3112H38.0369ZM36.0965 17.7383C40.5385 17.1653 45.009 16.8789 49.4785 16.8789C53.948 16.8789 58.4185 17.1653 62.8605 17.7383C62.991 20.0534 63.1205 22.3686 63.2509 24.6838C58.6794 24.0942 54.0785 23.7999 49.4785 23.7999C44.8785 23.7999 40.2776 24.0942 35.706 24.6838C35.8365 22.3686 35.966 20.0534 36.0965 17.7383ZM49.4785 25.7678C54.41 25.7816 59.3436 26.1298 64.2418 26.8175C64.2437 26.845 64.2447 26.8735 64.2467 26.9009C61.7667 26.8499 59.2621 27.0128 56.7488 26.947C55.4921 26.9274 54.2335 26.8793 52.9738 26.8774C51.8094 26.8617 50.6439 26.8489 49.4785 26.8597C48.313 26.8489 47.1476 26.8617 45.9831 26.8774C44.7235 26.8803 43.4639 26.9284 42.2082 26.947C39.6948 27.0128 37.1903 26.8499 34.7103 26.9009C34.7123 26.8735 34.7132 26.846 34.7152 26.8175C39.6144 26.1298 44.5469 25.7816 49.4785 25.7678ZM34.4307 19.4903C34.6956 19.4903 34.9094 19.714 34.9094 19.9887C34.9094 20.2634 34.6956 20.4871 34.4307 20.4871C34.1658 20.4871 33.952 20.2634 33.952 19.9887C33.952 19.714 34.1668 19.4903 34.4307 19.4903ZM34.4307 22.4844C34.6956 22.4844 34.9094 22.7081 34.9094 22.9828C34.9094 23.2574 34.6956 23.4811 34.4307 23.4811C34.1658 23.4811 33.952 23.2574 33.952 22.9828C33.952 22.7081 34.1668 22.4844 34.4307 22.4844ZM59.2337 80.4692H57.5179V88.4762H59.2337V80.4692ZM46.4452 88.4988H48.5956C49.3166 88.4988 49.8081 88.0073 49.8081 87.2862V83.9008H47.3713V85.5018H48.0923V86.8399C48.0923 86.8624 48.0805 86.8742 48.058 86.8742H46.9828C46.9602 86.8742 46.9485 86.8624 46.9485 86.8399V82.1045C46.9485 82.082 46.9602 82.0702 46.9828 82.0702H48.058C48.0805 82.0702 48.0923 82.082 48.0923 82.1045V83.0424H49.8081V81.6582C49.8081 80.9371 49.3166 80.4456 48.5956 80.4456H46.4452C45.7241 80.4456 45.2327 80.9371 45.2327 81.6582V87.2862C45.2327 88.0073 45.7241 88.4988 46.4452 88.4988ZM52.1233 91.0308H52.4686V90.09H52.1233V91.0308ZM52.3587 84.5296L52.3931 84.7356L53.3309 88.4762H53.9833L54.9329 84.7356L54.9673 84.5296V88.4762H56.6262V80.4692H54.6474L53.6635 84.4384L52.6795 80.4692H50.7008V88.4762H52.3597V84.5296H52.3587ZM44.3409 87.2637V85.3301C44.3409 84.8612 44.1231 84.4835 43.769 84.3923V84.3697C44.1231 84.2785 44.3409 83.9125 44.3409 83.4436V81.6817C44.3409 80.9607 43.8494 80.4692 43.1284 80.4692H39.7655V88.4762H43.1284C43.8494 88.4762 44.3409 87.9847 44.3409 87.2637ZM42.6251 86.8409C42.6251 86.8634 42.6133 86.8752 42.5908 86.8752H41.4813V85.1368H42.5908C42.6133 85.1368 42.6251 85.1486 42.6251 85.1712V86.8409ZM42.6251 83.6143C42.6251 83.6369 42.6133 83.6486 42.5908 83.6486H41.4813V82.0702H42.5908C42.6133 82.0702 42.6251 82.082 42.6251 82.1045V83.6143ZM59.2337 89.0952H39.7645V92.0245H59.2337V89.0952ZM45.4799 91.3437L45.4848 91.2672L45.2013 90.6825H45.1503V91.2505L45.1973 91.3447H44.7892L44.8363 91.2505V89.8702L44.7892 89.7761H45.1973L45.1503 89.8702V90.3696H45.2052L45.4848 89.8516L45.4799 89.777H45.888L45.8115 89.8732L45.472 90.4853L45.8389 91.224L45.9351 91.3447H45.4799V91.3437ZM46.8582 91.3437L46.8641 91.2427L46.7326 90.8846H46.6228V91.2505L46.6698 91.3447H46.2617L46.3088 91.2505V89.8702L46.2617 89.7761H47.0299L47.2496 89.9958V90.6658L47.0564 90.8591L47.1976 91.225L47.281 91.3447H46.8572L46.8582 91.3437ZM48.4729 91.3437L48.4916 91.228L48.4514 91.0749H48.0236L47.9834 91.228L48.0021 91.3437H47.6097L47.6499 91.2574L48.0207 89.8663L47.9864 89.7751H48.4886L48.4543 89.8663L48.8251 91.2574L48.8654 91.3437H48.4729ZM50.1456 90.1371L50.0514 90.09H49.5805V90.4068H49.8944L49.9886 90.3598V90.7679L49.8944 90.7208H49.5805V91.2515L49.6276 91.3457H49.2195L49.2666 91.2515V89.8712L49.2195 89.777H50.1446V90.138L50.1456 90.1371ZM51.4798 90.1371L51.3856 90.09H51.1344V91.2505L51.1815 91.3447H50.7734L50.8205 91.2505V90.09H50.5704L50.4762 90.1371V89.7761H51.4788V90.1371H51.4798ZM52.7816 91.1249L52.5618 91.3447H52.0281L51.8084 91.1249V89.9958L52.0281 89.7761H52.5618L52.7816 89.9958V91.1249ZM54.2099 91.3437H53.8332L53.5036 90.5V91.2495L53.5507 91.3437H53.1426L53.1897 91.2495V89.8692L53.1426 89.7751H53.5193L53.8489 90.6187V89.8692L53.8018 89.7751H54.2099L54.1628 89.8692V91.2505L54.2099 91.3447V91.3437ZM61.7696 93.8806V78.6141C61.7696 78.2776 61.4959 78.0039 61.1604 78.0039H37.8378C37.5023 78.0039 37.2286 78.2776 37.2286 78.6141V93.8806C37.2286 94.2171 37.5023 94.4908 37.8378 94.4908H61.1604C61.4959 94.4908 61.7696 94.2171 61.7696 93.8806ZM60.563 93.2832H38.4362V79.2115H60.563V93.2832ZM46.6237 90.5707H46.9377V90.089H46.6237V90.5707ZM48.1021 90.7737H48.3729L48.2375 90.2528L48.1021 90.7737ZM66.3921 54.5704V35.1306L66.1734 35.1591C64.6459 35.3553 63.091 35.527 61.5518 35.6692L61.3752 35.6859V54.6057H61.5705C63.1156 54.5949 64.6587 54.5841 66.1999 54.5724H66.3921V54.5704ZM56.3632 36.9956C55.2674 36.4266 53.7989 36.1715 51.881 36.2029C48.7408 36.2598 45.5574 36.2029 42.4171 36.0332L42.2131 36.0224V54.6254H42.4064C44.7637 54.6342 47.1231 54.6381 49.4834 54.6381C50.2829 54.6381 51.0844 54.6381 51.8839 54.6371C53.7537 54.6361 55.2626 54.3173 56.3691 53.6904C57.515 53.042 58.0947 52.1306 58.0957 50.9828V39.6178C58.0957 38.472 57.513 37.5891 56.3632 36.9956ZM53.0199 50.5836C53.0199 51.4783 52.1292 51.9325 50.3722 51.9344C49.3235 51.9354 48.2758 51.9344 47.228 51.9315V38.9105C48.3032 38.9272 49.4 38.9311 50.4938 38.9242C51.622 38.9144 52.3676 39.0979 52.7374 39.4648C52.9277 39.6541 53.0199 39.8944 53.0199 40.2005V50.5836ZM73.4054 54.5008L73.5565 54.4988L73.5918 54.3526C73.8881 53.1254 74.1843 51.8873 74.4796 50.6405C76.2749 50.5571 78.0937 50.4619 79.8929 50.3589C80.1852 51.6431 80.4775 52.939 80.7699 54.2467L80.8042 54.4007L80.9622 54.3987C82.4641 54.3752 83.9621 54.3507 85.4532 54.3232L85.6995 54.3193L85.6387 54.0809C83.7757 46.8077 81.8676 39.8562 79.8055 32.8292L79.7536 32.6516L79.574 32.6938C77.9926 33.0676 76.3798 33.4178 74.7788 33.7337L74.6611 33.7572L74.6297 33.873C72.755 40.6557 70.8087 47.3207 68.6779 54.2477L68.6691 54.5498L68.8653 54.5479C70.3829 54.5341 71.8966 54.5184 73.4084 54.5008H73.4054ZM77.1666 39.0959C77.8367 41.8172 78.4998 44.567 79.1424 47.2864C77.8102 47.3982 76.474 47.5022 75.1624 47.5964C75.8373 44.7917 76.5103 41.9369 77.1666 39.0959ZM57.823 103.316V102.025H58.3439V101.154H57.823V99.0927H56.8469V101.154H55.7442L57.3413 96.5068V96.4676H56.2995L54.5974 101.417V102.025H56.8469V103.316H57.823ZM53.5124 98.3972V97.0709C53.5124 96.6569 53.3035 96.4499 52.8865 96.4499H50.8784C50.4615 96.4499 50.2525 96.6569 50.2525 97.0709V98.5934H51.2551V97.3201H52.502V98.5846L50.1829 102.663V103.297H53.5046V102.401H51.4081L53.2897 99.1143C53.4388 98.8514 53.5124 98.613 53.5124 98.3962V98.3972ZM46.1067 96.4509C45.6928 96.4509 45.4858 96.6608 45.4858 97.0807V102.672C45.4858 103.089 45.6888 103.298 46.094 103.298H48.2297C48.6407 103.298 48.8467 103.089 48.8467 102.672V97.0807C48.8467 96.6608 48.6407 96.4509 48.2297 96.4509H46.1077H46.1067ZM47.8441 102.419H46.4923V97.3308H47.8441V102.419ZM44.1231 98.3972V97.0709C44.1231 96.6569 43.9142 96.4499 43.4972 96.4499H41.4891C41.0722 96.4499 40.8632 96.6569 40.8632 97.0709V98.5934H41.8648V97.3201H43.1117V98.5846L40.7926 102.663V103.297H44.1133V102.401H42.0169L43.8985 99.1143C44.0476 98.8514 44.1212 98.613 44.1212 98.3962L44.1231 98.3972Z" fill="white"/>
</g>
</g>
</svg>
