<svg width="154" height="48" viewBox="0 0 154 48" fill="none" xmlns="http://www.w3.org/2000/svg">
<g id="Group 16">
<path id="Vector" d="M28.9688 37.6402H26.9644V40.995H28.9688C30.72 40.995 31.6061 40.4464 31.6061 39.3281V39.2649C31.6061 38.1677 30.7411 37.6191 28.9688 37.6191V37.6402Z" fill="white"/>
<path id="Vector_2" d="M45.9956 39.9616H48.3798L47.1771 37.5142L45.9956 39.9616Z" fill="white"/>
<path id="Vector_3" d="M52.7052 30.6777H0.780762V47.9999H61.9254L52.7052 30.6777ZM8.73505 42.894H6.03439V35.7837H8.73505V42.894ZM21.4155 42.894H18.6937L14.2419 38.5898V42.894H11.5412V35.7837H14.5794L18.7148 39.8347V35.7837H21.4155V42.894ZM34.4124 39.4338C34.4124 39.7925 34.3702 40.1089 34.2858 40.4254C34.2014 40.7419 34.0537 41.0373 33.8216 41.3538C33.5896 41.6703 33.2942 41.9235 32.9144 42.1555C32.5557 42.3665 32.0493 42.5564 31.4375 42.7041C30.8256 42.8518 30.0871 42.9151 29.2854 42.9151H24.2427V35.8048H29.2854C30.066 35.8048 30.7834 35.8681 31.3953 35.9947C32.0071 36.1213 32.4924 36.2901 32.8722 36.501C33.252 36.712 33.5474 36.9652 33.8005 37.2606C34.0537 37.556 34.2014 37.8514 34.2858 38.1678C34.3702 38.4843 34.4124 38.8008 34.4124 39.1595V39.4549V39.4338ZM39.666 42.894H36.9654V35.7837H39.666V42.894ZM49.245 41.7547H45.1096L44.561 42.894H41.5228L45.2995 35.7837H49.0551L52.8318 42.894H49.7935L49.245 41.7547Z" fill="white"/>
<path id="Vector_4" d="M110.938 38.1253C110.748 37.9565 110.495 37.8089 110.136 37.7034C109.778 37.5979 109.356 37.5557 108.849 37.5557C108.343 37.5557 107.9 37.5979 107.541 37.7034C107.182 37.8089 106.908 37.9354 106.739 38.1253C106.571 38.2941 106.444 38.484 106.36 38.6528C106.275 38.8216 106.254 39.0326 106.254 39.2436V39.3491C106.254 39.5601 106.296 39.7499 106.36 39.9398C106.423 40.1297 106.571 40.3196 106.739 40.4884C106.908 40.6783 107.182 40.8049 107.541 40.9315C107.9 41.0581 108.322 41.1003 108.828 41.1003C109.335 41.1003 109.757 41.0581 110.115 40.9315C110.474 40.8049 110.748 40.6783 110.917 40.5095C111.086 40.3407 111.233 40.1508 111.297 39.9609C111.381 39.771 111.402 39.5812 111.402 39.3702V39.2436C111.402 39.0326 111.36 38.8427 111.297 38.6528C111.212 38.4629 111.086 38.2941 110.917 38.1253H110.938Z" fill="white"/>
<path id="Vector_5" d="M97.9833 37.5557H95.0928V38.8849H97.9833C98.5741 38.8849 98.8906 38.6739 98.8906 38.2308C98.8906 37.7667 98.5952 37.5557 97.9833 37.5557Z" fill="white"/>
<path id="Vector_6" d="M122.141 37.5142H119.019V38.7379H122.141C122.69 38.7379 122.964 38.5269 122.964 38.126C122.964 37.7252 122.69 37.5142 122.141 37.5142Z" fill="white"/>
<path id="Vector_7" d="M57.3257 30.6777L66.5459 47.9999H152.693V30.6777H57.3257ZM78.1292 37.5349H72.2848V38.421H77.9393V40.1511H72.2848V41.1217H78.1292V42.894H69.6052V35.7837H78.1292V37.5138V37.5349ZM90.0501 40.6153C90.0501 40.8685 90.0079 41.1217 89.9446 41.3327C89.8813 41.5437 89.7547 41.7547 89.5648 41.9868C89.3749 42.1977 89.1217 42.3876 88.8053 42.5353C88.4888 42.683 88.0668 42.8096 87.5182 42.894C86.9907 42.9784 86.3578 43.0417 85.6404 43.0417H84.7754C81.8848 43.0417 80.4501 42.1977 80.4501 40.5098V40.4043H83.425C83.4672 41.0795 84.058 41.4171 85.1973 41.4171H85.2817C85.6404 41.4171 85.9569 41.4171 86.189 41.3749C86.4422 41.3327 86.611 41.2905 86.7165 41.2272C86.8219 41.1639 86.9064 41.0795 86.9486 41.0162C86.9907 40.9529 87.0118 40.8474 87.0118 40.763C87.0118 40.6153 86.9696 40.5098 86.9064 40.4254C86.8431 40.341 86.6743 40.2777 86.4211 40.2144C86.1679 40.1511 85.8092 40.1089 85.3239 40.1089L84.0158 40.0667C81.6949 40.0035 80.5345 39.2861 80.5345 37.9358V37.8514C80.5345 37.5982 80.5767 37.3872 80.64 37.1762C80.7033 36.9652 80.8299 36.7753 81.0198 36.5854C81.2096 36.3955 81.4417 36.2267 81.7371 36.1002C82.0325 35.9736 82.4334 35.8681 82.9187 35.7837C83.4039 35.6993 83.9736 35.6571 84.6066 35.6571H85.4505C88.32 35.6571 89.7758 36.3955 89.7758 37.8936V37.978H86.8219C86.7587 37.4716 86.189 37.2184 85.0918 37.2184H84.9863C84.5433 37.2184 84.2057 37.2395 83.9525 37.3028C83.6993 37.3661 83.5516 37.4083 83.5094 37.4927C83.4672 37.5771 83.425 37.6404 83.425 37.7459C83.425 37.8725 83.4672 37.9569 83.5305 38.0202C83.5938 38.0835 83.7415 38.1468 83.9947 38.21C84.2268 38.2733 84.5644 38.2944 84.9863 38.2944H86.2734C87.6237 38.3577 88.5732 38.5476 89.1639 38.8852C89.7547 39.2228 90.029 39.7503 90.029 40.4676V40.5942L90.0501 40.6153ZM101.676 38.2944C101.676 39.8769 100.557 40.6786 98.2998 40.6786H95.0927V42.894H92.371V35.7837H98.2998C100.557 35.7837 101.676 36.5643 101.676 38.1257V38.2733V38.2944ZM114.251 39.4549C114.251 39.6659 114.251 39.8769 114.208 40.0667C114.187 40.2566 114.124 40.4887 114.018 40.7419C113.934 40.9951 113.807 41.2061 113.66 41.4171C113.512 41.6281 113.301 41.8391 113.027 42.029C112.753 42.2399 112.457 42.4087 112.098 42.5564C111.74 42.7041 111.318 42.8096 110.79 42.894C110.263 42.9784 109.693 43.0206 109.06 43.0206H108.638C108.005 43.0206 107.414 42.9784 106.908 42.894C106.381 42.8096 105.959 42.7041 105.6 42.5564C105.241 42.4087 104.925 42.2399 104.672 42.029C104.397 41.818 104.186 41.6281 104.039 41.4171C103.891 41.2061 103.764 40.9951 103.68 40.7419C103.596 40.4887 103.532 40.2777 103.49 40.0667C103.448 39.8558 103.448 39.6659 103.448 39.4549V39.1595C103.448 38.9485 103.448 38.7375 103.49 38.5476C103.511 38.3577 103.574 38.1257 103.68 37.8936C103.764 37.6404 103.891 37.4294 104.039 37.2184C104.186 37.0074 104.397 36.8175 104.672 36.6065C104.946 36.3955 105.241 36.2267 105.6 36.1002C105.959 35.9525 106.381 35.847 106.908 35.7626C107.436 35.6782 108.005 35.636 108.638 35.636H109.06C109.693 35.636 110.263 35.6782 110.79 35.7626C111.318 35.847 111.74 35.9525 112.098 36.1002C112.457 36.2478 112.753 36.4166 113.027 36.6065C113.301 36.7964 113.491 37.0074 113.66 37.2184C113.807 37.4294 113.934 37.6404 114.018 37.8936C114.103 38.1468 114.166 38.3577 114.208 38.5476C114.229 38.7375 114.251 38.9485 114.251 39.1595V39.4549ZM125.939 42.894H123.175C123.112 42.8307 123.091 42.7041 123.091 42.5142V41.6914C123.091 41.2694 122.985 40.9529 122.753 40.763C122.542 40.552 122.163 40.4676 121.635 40.4676H119.04V42.894H116.318V35.7837H122.774C124.779 35.7837 125.771 36.3955 125.771 37.6193V37.7248C125.771 37.978 125.728 38.1889 125.623 38.3788C125.517 38.5687 125.412 38.7375 125.243 38.8641C125.074 38.9907 124.927 39.0751 124.779 39.1595C124.631 39.2228 124.483 39.2861 124.315 39.3283C124.758 39.4338 125.116 39.6237 125.391 39.9191C125.644 40.2145 125.792 40.5731 125.792 41.0162V42.0711C125.792 42.4509 125.834 42.7041 125.918 42.8729V42.9151L125.939 42.894ZM136.468 37.7248H133.408V42.894H130.687V37.7248H127.627V35.7837H136.468V37.7248ZM147.84 40.6153C147.84 40.8685 147.798 41.1217 147.734 41.3327C147.671 41.5437 147.545 41.7547 147.355 41.9868C147.165 42.1977 146.912 42.3876 146.595 42.5353C146.279 42.683 145.857 42.8096 145.308 42.894C144.781 42.9784 144.148 43.0417 143.43 43.0417H142.565C139.675 43.0417 138.24 42.1977 138.24 40.5098V40.4043H141.215C141.257 41.0795 141.848 41.4171 142.987 41.4171H143.072C143.43 41.4171 143.747 41.4171 143.979 41.3749C144.232 41.3327 144.401 41.2905 144.506 41.2272C144.612 41.1639 144.696 41.0795 144.738 41.0162C144.781 40.9529 144.802 40.8474 144.802 40.763C144.802 40.6153 144.76 40.5098 144.696 40.4254C144.633 40.341 144.464 40.2777 144.211 40.2144C143.958 40.1511 143.599 40.1089 143.114 40.1089L141.806 40.0667C139.485 40.0035 138.324 39.2861 138.324 37.9358V37.8514C138.324 37.5982 138.367 37.3872 138.43 37.1762C138.493 36.9652 138.62 36.7753 138.81 36.5854C139 36.3955 139.232 36.2267 139.527 36.1002C139.822 35.9736 140.223 35.8681 140.709 35.7837C141.194 35.6993 141.764 35.6571 142.396 35.6571H143.24C146.11 35.6571 147.566 36.3955 147.566 37.8936V37.978H144.612C144.549 37.4716 143.979 37.2184 142.882 37.2184H142.776C142.333 37.2184 141.996 37.2395 141.742 37.3028C141.489 37.3661 141.342 37.4083 141.299 37.4927C141.257 37.5771 141.215 37.6404 141.215 37.7459C141.215 37.8725 141.257 37.9569 141.32 38.0202C141.384 38.0835 141.531 38.1468 141.785 38.21C142.017 38.2733 142.354 38.2944 142.776 38.2944H144.063C145.414 38.3577 146.363 38.5476 146.954 38.8852C147.545 39.2228 147.819 39.7503 147.819 40.4676V40.5942L147.84 40.6153Z" fill="white"/>
<path id="Vector_8" d="M18.6514 25.5718L17.0901 23.6096L11.1191 11.5621L16.647 1.58232L17.8919 0.0209961H11.2457L11.3301 1.24474L6.77275 9.6632H5.88659V1.54012L6.64616 0.0209961H0L0.780659 1.54012V24.0316L0 25.5718H6.64616L5.88659 24.0316V14.7902H6.70945L11.3301 24.3058L11.2457 25.5718H18.6514Z" fill="white"/>
<path id="Vector_9" d="M24.0105 0.0209961L24.7701 1.54012V24.0316L24.0105 25.5507H30.6567L29.8971 24.0316V18.0817H31.6905L33.8215 23.905L33.716 25.5507H40.6153L39.265 23.6096L36.9652 17.6597L40.109 14.5159V3.60781L36.5221 0.0209961H24.0105ZM29.876 5.12693H34.9819V12.9757H29.876V5.12693Z" fill="white"/>
<path id="Vector_10" d="M66.3983 25.5718L65.7442 24.1582L59.71 1.49792L60.2585 0.0209961H52.0722L52.6207 1.49792L46.5864 24.1582L45.9324 25.5718H52.3253L52.03 23.6729L52.684 21.1832H59.6467L60.3007 23.6729L60.0053 25.5718H66.3983ZM53.9711 16.2883L56.1864 7.8065L58.4018 16.2883H53.9922H53.9711Z" fill="white"/>
<path id="Vector_11" d="M142.734 25.5718L141.974 24.0316V11.8364L147.334 25.5718H153.473L152.693 24.0316V1.54012L153.473 0.0209961H146.827L147.587 1.54012V13.7564L142.228 0.0209961H136.088L136.869 1.54012V24.0316L136.088 25.5718H142.734Z" fill="white"/>
<path id="Vector_12" d="M78.8254 25.5718L78.0658 24.0316V15.4021H83.1717L84.7119 16.1617V9.5155L83.1717 10.2962H78.0658V5.12693H85.7247L87.2649 5.8865V0.0209961H72.1792L72.9388 1.54012V24.0316L72.1792 25.5718H78.8254Z" fill="white"/>
<path id="Vector_13" d="M104.144 25.5718L103.364 24.0316V5.12693H107.457L108.997 5.8865V0.0209961H92.6665V5.8865L94.1856 5.12693H98.2577V24.0316L97.4982 25.5718H104.144Z" fill="white"/>
<path id="Vector_14" d="M126.636 25.5719L130.222 21.9851V3.58681L126.636 0H117.943L114.356 3.58681V21.9851L117.943 25.5719H126.636ZM119.483 20.4659V5.14813H125.095V20.4659H119.483Z" fill="white"/>
</g>
</svg>
