<svg width="17" height="17" viewBox="0 0 17 17" fill="none" xmlns="http://www.w3.org/2000/svg">
<g id="heroicons-micro/user-plus">
<g id="Union">
<path d="M9 4.55273C9 5.93345 7.88071 7.05273 6.5 7.05273C5.11929 7.05273 4 5.93345 4 4.55273C4 3.17202 5.11929 2.05273 6.5 2.05273C7.88071 2.05273 9 3.17202 9 4.55273Z" fill="#151515"/>
<path d="M10.4995 13.0527C11.0518 13.0527 11.5099 12.6005 11.4008 12.0591C10.94 9.7737 8.92072 8.05273 6.49951 8.05273C4.07829 8.05273 2.05903 9.7737 1.59823 12.0591C1.48907 12.6005 1.94722 13.0527 2.49951 13.0527H10.4995Z" fill="#151515"/>
<path d="M13 3.55273C13.4142 3.55273 13.75 3.88852 13.75 4.30273V5.30273H14.75C15.1642 5.30273 15.5 5.63852 15.5 6.05273C15.5 6.46695 15.1642 6.80273 14.75 6.80273H13.75V7.80273C13.75 8.21695 13.4142 8.55273 13 8.55273C12.5858 8.55273 12.25 8.21695 12.25 7.80273V6.80273H11.25C10.8358 6.80273 10.5 6.46695 10.5 6.05273C10.5 5.63852 10.8358 5.30273 11.25 5.30273H12.25V4.30273C12.25 3.88852 12.5858 3.55273 13 3.55273Z" fill="#151515"/>
</g>
</g>
</svg>
