<svg width="22" height="17" viewBox="0 0 22 17" fill="none" xmlns="http://www.w3.org/2000/svg">
<g id="Union">
<path d="M11.6 0.912716C11.6 0.553656 11.3866 0.228951 11.057 0.0865363C10.7273 -0.0558785 10.3446 0.0112492 10.0832 0.257336L5.24307 4.81272H2.20068C1.82869 4.81272 1.49502 5.04158 1.36106 5.38862C0.998398 6.32814 0.799988 7.34832 0.799988 8.41272C0.799988 9.47711 0.998398 10.4973 1.36106 11.4368C1.49502 11.7839 1.82869 12.0127 2.20068 12.0127H5.24307L10.0832 16.5681C10.3446 16.8142 10.7273 16.8813 11.057 16.7389C11.3866 16.5965 11.6 16.2718 11.6 15.9127V0.912716Z" fill="#B9B8B8"/>
<path d="M18.7397 2.47304C18.3882 2.12157 17.8184 2.12157 17.4669 2.47304C17.1154 2.82451 17.1154 3.39436 17.4669 3.74583C20.0444 6.32329 20.0444 10.5022 17.4669 13.0796C17.1154 13.4311 17.1154 14.001 17.4669 14.3524C17.8184 14.7039 18.3882 14.7039 18.7397 14.3524C22.0201 11.072 22.0201 5.75345 18.7397 2.47304Z" fill="#B9B8B8"/>
<path d="M16.1944 5.01861C15.8429 4.66714 15.2731 4.66714 14.9216 5.01861C14.5701 5.37008 14.5701 5.93993 14.9216 6.2914C16.0932 7.46298 16.0932 9.36247 14.9216 10.534C14.5701 10.8855 14.5701 11.4554 14.9216 11.8068C15.2731 12.1583 15.8429 12.1583 16.1944 11.8068C18.0689 9.93232 18.0689 6.89313 16.1944 5.01861Z" fill="#B9B8B8"/>
</g>
</svg>
