<svg width="64" height="78" viewBox="0 0 64 78" fill="none" xmlns="http://www.w3.org/2000/svg">
<g id="Group 1116601973">
<g id="Group">
<path id="Vector" d="M62.1875 35.3294V35.2964C62.19 34.4701 62.1145 18.4601 62.0917 13.5723L62.0701 7.12875L44.8375 11.6189C44.8134 11.3006 44.7886 10.9727 44.7645 10.6277C44.6941 9.62119 44.0745 8.77515 43.1866 8.39209C42.9824 7.54923 42.6831 6.74569 42.2899 5.98654C40.4012 2.34239 36.4583 0.0776367 31.9998 0.0776367C29.0882 0.0776367 26.3453 1.03846 24.2758 2.7819C22.5489 4.23677 21.354 6.18759 20.8162 8.39146C19.9271 8.77325 19.3062 9.62055 19.2345 10.6283C19.2092 10.9949 19.1832 11.3437 19.1578 11.6798L1.92892 7.09514L1.90735 13.3922L1.90228 14.5496C1.84076 27.7798 1.81032 34.7599 1.81159 35.2964V35.3307C0.670649 35.9985 -0.000976562 37.1883 -0.000976562 38.7186V52.3204C-0.000976562 54.0055 0.856471 54.863 1.36955 55.2257C1.90989 55.6075 2.56883 55.8086 3.27661 55.8086C3.70723 55.8086 4.16069 55.7318 4.64459 55.5853L4.89764 56.0705C6.85227 59.8073 10.0258 62.5908 16.4041 67.4184L16.51 67.4977L31.996 77.9221L47.491 67.4964L47.5994 67.4158C53.9732 62.5908 57.1474 59.8073 59.1008 56.0705L59.3538 55.5879C59.8403 55.7325 60.2906 55.8061 60.7206 55.8061C61.4283 55.8061 62.0885 55.6044 62.6314 55.2219C63.1413 54.8604 63.9994 54.003 64.0007 52.3192V38.697C64.0007 37.1769 63.3284 35.9928 62.1881 35.3294H62.1875Z" fill="black"/>
<path id="Vector_2" d="M11.8848 49.6725V46.3468C11.8848 45.8318 11.6469 45.4462 11.177 45.202C9.07078 44.1055 7.18211 43.0134 5.4076 41.8629V39.2094C6.50097 39.1434 7.60069 39.0819 8.70484 39.0242V41.7982L8.8431 41.7843C9.81597 41.6847 10.8003 41.5915 11.77 41.5059L11.8848 41.4957V38.2606C11.8848 37.8795 11.7693 37.5712 11.541 37.3461C11.229 37.0385 10.7064 36.8939 9.97706 36.8983C8.01356 36.932 6.06464 36.9706 4.13411 37.0131C2.90565 37.0366 2.28286 37.6074 2.28286 38.7109V42.414C2.28286 43 2.51181 43.4497 2.96336 43.7497C4.73978 44.9115 6.6183 45.9986 8.70484 47.0723V49.7778C7.60513 50.055 6.4978 50.3562 5.4076 50.674V47.4826L5.25349 47.5181C4.29393 47.7395 3.3255 47.9754 2.37672 48.2202L2.28223 48.2443V52.3115C2.28223 52.8112 2.41795 53.1607 2.68558 53.3497C2.84096 53.4594 3.03566 53.5146 3.27286 53.5146C3.52527 53.5146 3.82589 53.4524 4.17787 53.3275C6.09001 52.6609 8.05224 52.0546 10.0119 51.5257C11.2721 51.1845 11.8848 50.5776 11.8841 49.6713L11.8848 49.6725ZM9.41642 20.4191V35.2006L9.54009 35.2031C10.5149 35.2196 11.4928 35.2354 12.4739 35.25L12.6014 35.2519V21.2347L12.505 21.2125C11.5309 20.9816 10.5453 20.7292 9.57561 20.4629L9.41642 20.4191ZM6.6665 35.2291C6.66396 34.3216 6.7629 13.4016 6.7629 13.4016L19.1337 16.6944C19.1337 16.6608 19.1325 16.6291 19.1344 16.5948C19.1984 15.6645 19.2625 14.8546 19.3259 14.0853L7.42374 10.9174L4.20387 10.06L4.19246 13.3927C4.19246 13.5075 4.09352 34.352 4.09669 35.283C4.9478 35.264 5.80588 35.2462 6.66713 35.2291H6.6665ZM22.2769 38.6107L22.3999 38.6082V36.748H22.2737C19.5263 36.7696 16.7764 36.7981 14.1 36.8356L13.9764 36.8368V50.5611L14.1286 50.5281C16.8398 49.9414 19.6113 49.4842 22.3657 49.1677L22.4766 49.1557V47.2949L22.339 47.3088C20.6229 47.4807 18.8908 47.7027 17.1893 47.9672V44.1809C18.6353 44.0313 20.1034 43.9019 21.5558 43.7966L21.6718 43.7884V41.9485L21.5393 41.9561C20.087 42.0392 18.6245 42.1413 17.1893 42.2587V38.7502C18.8705 38.6944 20.5816 38.6475 22.2775 38.6107H22.2769ZM25.1264 35.375V23.209L25.0109 23.1995C24.045 23.1196 23.0646 23.0213 22.0974 22.9077L21.9572 22.8906V29.6728C21.9572 29.7191 21.9598 29.7686 21.9655 29.8225C20.392 27.2578 18.9619 24.7907 17.6053 22.3033L17.5761 22.2501L17.5165 22.2393C16.6483 22.0883 15.775 21.9228 14.9226 21.7471L14.7717 21.7161V35.2817L14.896 35.283C15.8568 35.2951 16.8202 35.3071 17.786 35.3166L17.9129 35.3179V28.0714C17.9129 28.0309 17.911 27.9877 17.9072 27.9421C19.2492 30.3349 20.6812 32.7494 22.2699 35.2982L22.3067 35.3566H22.3758C23.2491 35.3636 24.1243 35.3686 24.9995 35.3737H25.1257L25.1264 35.375ZM24.2734 36.736V48.9711L24.4097 48.9584C25.4048 48.8684 26.4125 48.7961 27.4057 48.7415L27.5243 48.7352V38.482C28.7027 38.4712 29.8823 38.4636 31.0619 38.4617V41.9054C30.1207 41.9105 29.1694 41.9225 28.2302 41.9428L28.1071 41.9454V43.1611L29.2842 45.065C30.0028 46.2269 30.7213 47.3888 31.4399 48.5589L31.4767 48.6191H31.5471C32.5891 48.614 33.6412 48.628 34.6775 48.6603L34.9103 48.668L34.7885 48.4694C33.6831 46.6677 32.5599 44.8754 31.5934 43.3387C32.5174 43.3311 33.0635 43.2969 33.3489 43.2296C33.9843 43.0761 34.3059 42.7172 34.3059 42.1623V37.9156C34.3059 37.1184 33.6539 36.7138 32.369 36.7138C29.7345 36.7138 27.0505 36.7201 24.397 36.7353H24.2727L24.2734 36.736ZM36.4432 36.7208V48.7345L36.5617 48.7409C37.5549 48.7942 38.5627 48.8671 39.5577 48.9565L39.6941 48.9692V36.736H39.5698C38.5703 36.7296 37.5701 36.7252 36.5687 36.722H36.4425L36.4432 36.7208ZM50.2435 50.6105L50.3957 50.6441V48.5957L50.2942 48.5754C48.5965 48.2468 46.8606 47.9595 45.1356 47.7217V44.0173C46.5784 44.1499 48.0326 44.3052 49.4596 44.4809L49.6004 44.498V42.5085L49.4869 42.4978C48.0479 42.3576 46.5848 42.2333 45.1356 42.1293V38.6969C46.8036 38.7458 48.5039 38.806 50.1896 38.8758L50.3202 38.8815V36.8406L50.1959 36.8387C47.5082 36.8013 44.7595 36.7715 42.0261 36.7506H41.8992V49.1988L42.0102 49.2121C44.7659 49.5406 47.5354 50.0112 50.2429 50.6099L50.2435 50.6105ZM44.665 63.5363L31.9942 72.0607L19.3297 63.5363C13.7056 59.2795 10.9969 56.9323 9.43989 54.2433C8.59703 54.483 7.7567 54.7386 6.92145 55.0056C8.63888 58.2901 11.5163 60.8473 17.7778 65.5867L17.8349 65.6292L17.8945 65.6691L30.559 74.1935L31.9942 75.1601L33.4294 74.1942L46.1002 65.6691L46.1598 65.6292L46.2169 65.5861C52.4784 60.8466 55.3552 58.2895 57.072 55.005C56.2374 54.7386 55.3971 54.4836 54.5548 54.2426C52.9985 56.931 50.2898 59.2789 44.6656 63.5363H44.665ZM44.8591 16.624L57.2312 13.401C57.2312 13.401 57.3289 33.8947 57.3276 34.6171C57.3504 34.7052 57.3733 34.7934 57.3961 34.8822L57.4861 35.2323C58.2909 35.2481 59.0951 35.2653 59.8936 35.2824C59.8949 35.2824 59.8961 35.2824 59.8974 35.2824C59.9006 34.3507 59.8023 13.5069 59.801 13.3921L59.7902 10.0777L56.583 10.913L44.6618 14.0187C44.7265 14.8076 44.7925 15.6372 44.8584 16.5948C44.8584 16.605 44.8584 16.6139 44.8584 16.6234L44.8591 16.624ZM58.6962 42.1762C59.6443 42.2891 60.6109 42.4115 61.5685 42.5396L61.7106 42.5586V38.6906C61.7106 37.601 61.0834 37.0372 59.8473 37.0144C57.9168 36.9713 55.9678 36.9326 54.0037 36.8996C53.2915 36.8952 52.7695 37.0391 52.4588 37.3455C52.2267 37.5744 52.1087 37.8883 52.1093 38.2796V41.3815C52.1093 41.8667 52.3402 42.298 52.7974 42.6639C54.8554 44.2907 56.7492 45.9751 58.5865 47.8137V50.6752C57.4963 50.3575 56.389 50.0562 55.2892 49.7791V46.7812L55.1878 46.7609C54.2193 46.5706 53.2331 46.3892 52.2558 46.2231L52.1093 46.1977V49.6719C52.1093 50.5661 52.7347 51.1896 53.9695 51.5232C55.9285 52.0514 57.8914 52.6571 59.8029 53.3237C60.1593 53.4499 60.4631 53.5127 60.7181 53.5127C60.9559 53.5127 61.1519 53.4575 61.3079 53.3471C61.5755 53.1588 61.7106 52.81 61.7106 52.3121V48.342C61.7106 47.7439 61.4893 47.2124 61.051 46.7609C59.2194 44.8697 57.3346 43.1434 55.2886 41.4862V39.0236C56.3934 39.0813 57.4925 39.1428 58.5859 39.2088V42.1623L58.6968 42.1749L58.6962 42.1762ZM21.5856 17.4339C21.5406 18.084 21.4962 19.7494 21.4511 20.3994C21.4017 21.1066 22.0073 21.5746 22.8064 21.4649C25.9464 21.0324 28.9735 20.8117 31.9967 20.7984C35.02 20.8117 38.0471 21.0324 41.187 21.4649C41.9855 21.5746 42.5918 21.1066 42.5423 20.3994C42.4973 19.7494 42.4529 18.084 42.4085 17.4339C42.3958 17.2519 42.9571 16.9081 42.945 16.7267C42.7903 14.4747 42.6355 12.9729 42.4814 10.7817C42.47 10.6181 42.347 10.4823 42.1846 10.4582C41.8523 10.4069 41.5193 10.3599 41.1864 10.3143C41.0843 9.10548 40.7608 8.00387 40.2566 7.03163C38.7453 4.11427 35.6155 2.35815 31.9974 2.35815C27.1736 2.35815 23.2161 5.47972 22.809 10.3136C22.476 10.3599 22.1424 10.4069 21.8101 10.4576C21.6477 10.4823 21.5253 10.6181 21.5133 10.7811C21.3592 12.9722 21.2044 14.474 21.0497 16.7261C21.037 16.9075 21.5983 17.2512 21.5862 17.4333L21.5856 17.4339ZM41.7115 12.6697C41.8821 12.6697 42.021 12.8143 42.021 12.9919C42.021 13.1695 41.8821 13.3141 41.7115 13.3141C41.5409 13.3141 41.402 13.1695 41.402 12.9919C41.402 12.8143 41.5403 12.6697 41.7115 12.6697ZM41.7115 14.6053C41.8821 14.6053 42.021 14.7499 42.021 14.9275C42.021 15.1051 41.8821 15.2497 41.7115 15.2497C41.5409 15.2497 41.402 15.1051 41.402 14.9275C41.402 14.7499 41.5403 14.6053 41.7115 14.6053ZM24.5867 9.968C25.8703 9.57289 27.1457 9.33697 28.4204 9.17969C29.0578 9.08899 29.6939 9.05348 30.3307 9.00401C30.8818 8.97547 31.4329 8.96406 31.9834 8.95644C32.5345 8.96406 33.085 8.97547 33.6362 9.00401C34.2729 9.05411 34.909 9.08963 35.5464 9.17969C36.8205 9.33697 38.0959 9.57289 39.3802 9.968C39.3814 9.9921 39.3827 10.0156 39.384 10.0397C36.9251 9.77711 34.4549 9.65344 31.984 9.66485C29.5132 9.65344 27.0423 9.77774 24.5841 10.0397C24.5854 10.0156 24.5867 9.9921 24.5873 9.968H24.5867ZM23.3322 11.537C26.2039 11.1667 29.094 10.9815 31.9834 10.9815C34.8729 10.9815 37.7629 11.1667 40.6346 11.537C40.719 13.0338 40.8027 14.5305 40.887 16.0272C37.9316 15.6461 34.9572 15.4558 31.9834 15.4558C29.0096 15.4558 26.0352 15.6461 23.0798 16.0272C23.1641 14.5305 23.2478 13.0338 23.3322 11.537ZM31.9834 16.728C35.1716 16.7369 38.361 16.962 41.5276 17.4066C41.5289 17.4244 41.5295 17.4428 41.5308 17.4605C39.9275 17.4275 38.3084 17.5328 36.6835 17.4903C35.8711 17.4777 35.0574 17.4466 34.2431 17.4453C33.4903 17.4352 32.7368 17.4269 31.9834 17.4339C31.23 17.4269 30.4765 17.4352 29.7237 17.4453C28.9094 17.4472 28.0951 17.4783 27.2833 17.4903C25.6585 17.5328 24.0393 17.4275 22.4361 17.4605C22.4373 17.4428 22.438 17.425 22.4392 17.4066C25.6065 16.962 28.7952 16.7369 31.9834 16.728ZM22.2553 12.6697C22.4265 12.6697 22.5648 12.8143 22.5648 12.9919C22.5648 13.1695 22.4265 13.3141 22.2553 13.3141C22.0841 13.3141 21.9458 13.1695 21.9458 12.9919C21.9458 12.8143 22.0847 12.6697 22.2553 12.6697ZM22.2553 14.6053C22.4265 14.6053 22.5648 14.7499 22.5648 14.9275C22.5648 15.1051 22.4265 15.2497 22.2553 15.2497C22.0841 15.2497 21.9458 15.1051 21.9458 14.9275C21.9458 14.7499 22.0847 14.6053 22.2553 14.6053ZM38.29 52.0914H37.1807V57.2678H38.29V52.0914ZM30.0224 57.2824H31.4126C31.8788 57.2824 32.1965 56.9646 32.1965 56.4985V54.3099H30.6211V55.3449H31.0873V56.2099C31.0873 56.2245 31.0797 56.2321 31.0651 56.2321H30.37C30.3554 56.2321 30.3478 56.2245 30.3478 56.2099V53.1486C30.3478 53.134 30.3554 53.1264 30.37 53.1264H31.0651C31.0797 53.1264 31.0873 53.134 31.0873 53.1486V53.7549H32.1965V52.8601C32.1965 52.3939 31.8788 52.0762 31.4126 52.0762H30.0224C29.5563 52.0762 29.2386 52.3939 29.2386 52.8601V56.4985C29.2386 56.9646 29.5563 57.2824 30.0224 57.2824ZM33.6932 58.9193H33.9165V58.3111H33.6932V58.9193ZM33.8454 54.7164L33.8676 54.8496L34.4739 57.2678H34.8957L35.5096 54.8496L35.5318 54.7164V57.2678H36.6042V52.0914H35.325L34.6889 54.6574L34.0528 52.0914H32.7736V57.2678H33.8461V54.7164H33.8454ZM28.6621 56.4839V55.2339C28.6621 54.9307 28.5213 54.6866 28.2923 54.6276V54.613C28.5213 54.554 28.6621 54.3175 28.6621 54.0143V52.8753C28.6621 52.4091 28.3443 52.0914 27.8782 52.0914H25.7041V57.2678H27.8782C28.3443 57.2678 28.6621 56.9501 28.6621 56.4839ZM27.5528 56.2106C27.5528 56.2252 27.5452 56.2328 27.5306 56.2328H26.8134V55.109H27.5306C27.5452 55.109 27.5528 55.1166 27.5528 55.1312V56.2106ZM27.5528 54.1247C27.5528 54.1393 27.5452 54.1469 27.5306 54.1469H26.8134V53.1264H27.5306C27.5452 53.1264 27.5528 53.134 27.5528 53.1486V54.1247ZM38.29 57.668H25.7035V59.5617H38.29V57.668ZM29.3984 59.1216L29.4016 59.0721L29.2183 58.6941H29.1853V59.0613L29.2157 59.1222H28.9519L28.9823 59.0613V58.169L28.9519 58.1081H29.2157L29.1853 58.169V58.4918H29.2208L29.4016 58.157L29.3984 58.1088H29.6622L29.6127 58.1709L29.3933 58.5667L29.6305 59.0442L29.6927 59.1222H29.3984V59.1216ZM30.2894 59.1216L30.2932 59.0563L30.2083 58.8248H30.1372V59.0613L30.1677 59.1222H29.9038L29.9343 59.0613V58.169L29.9038 58.1081H30.4004L30.5425 58.2502V58.6833L30.4176 58.8083L30.5089 59.0448L30.5628 59.1222H30.2888L30.2894 59.1216ZM31.3333 59.1216L31.3454 59.0467L31.3194 58.9478H31.0429L31.0169 59.0467L31.0289 59.1216H30.7752L30.8012 59.0658L31.041 58.1665L31.0188 58.1075H31.3435L31.3213 58.1665L31.561 59.0658L31.587 59.1216H31.3333ZM32.4147 58.3415L32.3538 58.3111H32.0494V58.5159H32.2523L32.3132 58.4855V58.7493L32.2523 58.7189H32.0494V59.062L32.0798 59.1229H31.816L31.8464 59.062V58.1696L31.816 58.1088H32.414V58.3421L32.4147 58.3415ZM33.2772 58.3415L33.2163 58.3111H33.0539V59.0613L33.0844 59.1222H32.8206L32.851 59.0613V58.3111H32.6893L32.6284 58.3415V58.1081H33.2766V58.3415H33.2772ZM34.1188 58.9802L33.9767 59.1222H33.6317L33.4896 58.9802V58.2502L33.6317 58.1081H33.9767L34.1188 58.2502V58.9802ZM35.0422 59.1216H34.7986L34.5856 58.5762V59.0607L34.616 59.1216H34.3522L34.3826 59.0607V58.1684L34.3522 58.1075H34.5957L34.8088 58.6529V58.1684L34.7784 58.1075H35.0422L35.0117 58.1684V59.0613L35.0422 59.1222V59.1216ZM39.9294 60.7617V50.8921C39.9294 50.6746 39.7524 50.4976 39.5355 50.4976H24.4579C24.241 50.4976 24.0641 50.6746 24.0641 50.8921V60.7617C24.0641 60.9792 24.241 61.1561 24.4579 61.1561H39.5355C39.7524 61.1561 39.9294 60.9792 39.9294 60.7617ZM39.1493 60.3754H24.8448V51.2783H39.1493V60.3754ZM30.1379 58.6218H30.3408V58.3104H30.1379V58.6218ZM31.0936 58.7531H31.2687L31.1811 58.4163L31.0936 58.7531ZM42.9178 35.3483V22.7809L42.7763 22.7993C41.7889 22.9261 40.7837 23.0371 39.7886 23.1291L39.6744 23.1399V35.3712H39.8006C40.7995 35.3642 41.7971 35.3572 42.7935 35.3496H42.9178V35.3483ZM36.4343 23.9865C35.7259 23.6187 34.7765 23.4538 33.5366 23.4741C31.5065 23.5109 29.4485 23.4741 27.4184 23.3644L27.2865 23.3574V35.3839H27.4114C28.9354 35.3896 30.4607 35.3921 31.9866 35.3921C32.5035 35.3921 33.0216 35.3921 33.5385 35.3915C34.7473 35.3908 35.7227 35.1847 36.4381 34.7795C37.1788 34.3602 37.5536 33.7711 37.5543 33.029V25.6818C37.5543 24.941 37.1776 24.3702 36.4343 23.9865ZM34.2729 32.7709C34.2729 33.3493 33.697 33.643 32.5612 33.6442C31.8832 33.6449 31.2059 33.6442 30.5285 33.6423V25.2245C31.2236 25.2353 31.9327 25.2378 32.6398 25.2334C33.3692 25.227 33.8511 25.3456 34.0902 25.5828C34.2133 25.7052 34.2729 25.8606 34.2729 26.0585V32.7709ZM47.4517 35.3033L47.5494 35.302L47.5722 35.2075C47.7637 34.4142 47.9553 33.6138 48.1462 32.8077C49.3068 32.7538 50.4826 32.6923 51.6457 32.6257C51.8347 33.4559 52.0237 34.2937 52.2127 35.139L52.2349 35.2386L52.337 35.2374C53.308 35.2221 54.2764 35.2063 55.2404 35.1885L55.3996 35.186L55.3603 35.0319C54.1559 30.3299 52.9224 25.8359 51.5893 21.293L51.5557 21.1782L51.4396 21.2055C50.4173 21.4472 49.3746 21.6736 48.3396 21.8778L48.2635 21.893L48.2432 21.9678C47.0312 26.3527 45.773 30.6615 44.3955 35.1397L44.3898 35.335L44.5166 35.3338C45.4977 35.3249 46.4763 35.3147 47.4536 35.3033H47.4517ZM49.8833 25.3444C50.3164 27.1036 50.7452 28.8813 51.1606 30.6393C50.2993 30.7116 49.4355 30.7789 48.5876 30.8398C49.0239 29.0266 49.459 27.181 49.8833 25.3444ZM37.378 66.8615V66.0268H37.7147V65.4637H37.378V64.1312H36.7469V65.4637H36.0341L37.0666 62.4594V62.4341H36.393L35.2927 65.6336V66.0268H36.7469V66.8615H37.378ZM34.5913 63.6815V62.8241C34.5913 62.5565 34.4562 62.4226 34.1866 62.4226H32.8884C32.6189 62.4226 32.4838 62.5565 32.4838 62.8241V63.8084H33.132V62.9852H33.938V63.8027L32.4388 66.4391V66.8494H34.5862V66.2697H33.2309L34.4473 64.1451C34.5437 63.9752 34.5913 63.8211 34.5913 63.6809V63.6815ZM29.8036 62.4233C29.536 62.4233 29.4022 62.559 29.4022 62.8304V66.4454C29.4022 66.7149 29.5335 66.85 29.7954 66.85H31.1761C31.4418 66.85 31.575 66.7149 31.575 66.4454V62.8304C31.575 62.559 31.4418 62.4233 31.1761 62.4233H29.8043H29.8036ZM30.9268 66.2818H30.0529V62.9922H30.9268V66.2818ZM28.5213 63.6815V62.8241C28.5213 62.5565 28.3862 62.4226 28.1166 62.4226H26.8184C26.5489 62.4226 26.4138 62.5565 26.4138 62.8241V63.8084H27.0613V62.9852H27.8674V63.8027L26.3681 66.4391V66.8494H28.5149V66.2697H27.1596L28.376 64.1451C28.4724 63.9752 28.52 63.8211 28.52 63.6809L28.5213 63.6815Z" fill="white"/>
</g>
</g>
</svg>
