<svg width="128" height="40" viewBox="0 0 128 40" fill="none" xmlns="http://www.w3.org/2000/svg">
<g id="Group 16">
<path id="Vector" d="M24.143 31.3672H22.4727V34.1628H24.143C25.6023 34.1628 26.3408 33.7057 26.3408 32.7738V32.721C26.3408 31.8068 25.6199 31.3496 24.143 31.3496V31.3672Z" fill="white"/>
<path id="Vector_2" d="M38.332 33.3032H40.3189L39.3166 31.2637L38.332 33.3032Z" fill="white"/>
<path id="Vector_3" d="M43.9227 25.5645H0.652344V39.9996H51.6063L43.9227 25.5645ZM7.28092 35.7447H5.03037V29.8194H7.28092V35.7447ZM17.848 35.7447H15.5798L11.8699 32.1579V35.7447H9.61939V29.8194H12.1513L15.5974 33.1952V29.8194H17.848V35.7447ZM28.6788 32.8612C28.6788 33.1601 28.6436 33.4238 28.5733 33.6875C28.5029 33.9513 28.3799 34.1974 28.1864 34.4612C27.993 34.7249 27.7469 34.9359 27.4304 35.1293C27.1315 35.3051 26.7095 35.4634 26.1996 35.5864C25.6897 35.7095 25.0744 35.7623 24.4062 35.7623H20.204V29.837H24.4062C25.0568 29.837 25.6546 29.8897 26.1645 29.9952C26.6744 30.1007 27.0788 30.2414 27.3952 30.4172C27.7117 30.593 27.9579 30.804 28.1689 31.0502C28.3799 31.2963 28.5029 31.5425 28.5733 31.8062C28.6436 32.07 28.6788 32.3337 28.6788 32.6326V32.8788V32.8612ZM33.0568 35.7447H30.8062V29.8194H33.0568V35.7447ZM41.0392 34.7952H37.5931L37.1359 35.7447H34.604L37.7513 29.8194H40.881L44.0282 35.7447H41.4964L41.0392 34.7952Z" fill="white"/>
<path id="Vector_4" d="M92.4463 31.7716C92.288 31.6309 92.077 31.5079 91.7781 31.42C91.4792 31.332 91.1276 31.2969 90.7056 31.2969C90.2836 31.2969 89.9144 31.332 89.6155 31.42C89.3166 31.5079 89.088 31.6134 88.9474 31.7716C88.8067 31.9123 88.7012 32.0705 88.6309 32.2112C88.5606 32.3518 88.543 32.5276 88.543 32.7035V32.7914C88.543 32.9672 88.5781 33.1254 88.6309 33.2837C88.6836 33.4419 88.8067 33.6002 88.9474 33.7408C89.088 33.8991 89.3166 34.0046 89.6155 34.1101C89.9144 34.2156 90.266 34.2507 90.688 34.2507C91.11 34.2507 91.4617 34.2156 91.7606 34.1101C92.0595 34.0046 92.288 33.8991 92.4287 33.7584C92.5693 33.6178 92.6924 33.4595 92.7452 33.3013C92.8155 33.143 92.8331 32.9848 92.8331 32.809V32.7035C92.8331 32.5276 92.7979 32.3694 92.7452 32.2112C92.6748 32.0529 92.5693 31.9123 92.4287 31.7716H92.4463Z" fill="white"/>
<path id="Vector_5" d="M81.6549 31.2969H79.2461V32.4046H81.6549C82.1472 32.4046 82.4109 32.2287 82.4109 31.8595C82.4109 31.4727 82.1648 31.2969 81.6549 31.2969Z" fill="white"/>
<path id="Vector_6" d="M101.782 31.2637H99.1797V32.2835H101.782C102.239 32.2835 102.468 32.1076 102.468 31.7736C102.468 31.4395 102.239 31.2637 101.782 31.2637Z" fill="white"/>
<path id="Vector_7" d="M47.7734 25.5645L55.457 39.9996H127.246V25.5645H47.7734ZM65.1097 31.2787H60.2394V32.0172H64.9515V33.459H60.2394V34.2678H65.1097V35.7447H58.0064V29.8194H65.1097V31.2612V31.2787ZM75.0438 33.8458C75.0438 34.0568 75.0086 34.2678 74.9559 34.4436C74.9031 34.6194 74.7977 34.7952 74.6394 34.9887C74.4812 35.1645 74.2702 35.3227 74.0064 35.4458C73.7427 35.5689 73.3911 35.6744 72.9339 35.7447C72.4943 35.815 71.9669 35.8678 71.3691 35.8678H70.6482C68.2394 35.8678 67.0438 35.1645 67.0438 33.7579V33.67H69.5229C69.5581 34.2326 70.0504 34.5139 70.9998 34.5139H71.0702C71.3691 34.5139 71.6328 34.5139 71.8262 34.4788C72.0372 34.4436 72.1779 34.4084 72.2658 34.3557C72.3537 34.3029 72.424 34.2326 72.4592 34.1799C72.4944 34.1271 72.5119 34.0392 72.5119 33.9689C72.5119 33.8458 72.4768 33.7579 72.424 33.6875C72.3713 33.6172 72.2306 33.5645 72.0196 33.5117C71.8086 33.459 71.5097 33.4238 71.1053 33.4238L70.0152 33.3886C68.0812 33.3359 67.1141 32.7381 67.1141 31.6128V31.5425C67.1141 31.3315 67.1493 31.1557 67.202 30.9799C67.2548 30.804 67.3603 30.6458 67.5185 30.4875C67.6768 30.3293 67.8702 30.1886 68.1163 30.0831C68.3625 29.9776 68.6965 29.8897 69.1009 29.8194C69.5053 29.7491 69.9801 29.7139 70.5075 29.7139H71.2108C73.602 29.7139 74.8152 30.3293 74.8152 31.5777V31.648H72.3537C72.3009 31.226 71.8262 31.015 70.9119 31.015H70.824C70.4548 31.015 70.1735 31.0326 69.9625 31.0853C69.7515 31.1381 69.6284 31.1733 69.5932 31.2436C69.5581 31.3139 69.5229 31.3667 69.5229 31.4546C69.5229 31.5601 69.5581 31.6304 69.6108 31.6832C69.6636 31.7359 69.7867 31.7886 69.9977 31.8414C70.1911 31.8941 70.4724 31.9117 70.824 31.9117H71.8966C73.0218 31.9645 73.813 32.1227 74.3053 32.404C74.7977 32.6853 75.0262 33.1249 75.0262 33.7227V33.8282L75.0438 33.8458ZM84.7317 31.9117C84.7317 33.2304 83.7999 33.8985 81.9185 33.8985H79.246V35.7447H76.9779V29.8194H81.9185C83.7999 29.8194 84.7317 30.47 84.7317 31.7711V31.8941V31.9117ZM95.2109 32.8788C95.2109 33.0546 95.2109 33.2304 95.1757 33.3886C95.1581 33.5469 95.1054 33.7403 95.0175 33.9513C94.9471 34.1623 94.8416 34.3381 94.7186 34.5139C94.5955 34.6897 94.4197 34.8656 94.1911 35.0238C93.9625 35.1996 93.7164 35.3403 93.4175 35.4634C93.1186 35.5865 92.7669 35.6744 92.3274 35.7447C91.8878 35.815 91.4131 35.8502 90.8856 35.8502H90.5339C90.0065 35.8502 89.5142 35.815 89.0922 35.7447C88.6526 35.6744 88.301 35.5865 88.0021 35.4634C87.7032 35.3403 87.4394 35.1996 87.2284 35.0238C86.9999 34.848 86.824 34.6897 86.701 34.5139C86.5779 34.3381 86.4724 34.1623 86.4021 33.9513C86.3317 33.7403 86.279 33.5645 86.2438 33.3886C86.2087 33.2128 86.2087 33.0546 86.2087 32.8788V32.6326C86.2087 32.4568 86.2087 32.281 86.2438 32.1227C86.2614 31.9645 86.3142 31.7711 86.4021 31.5777C86.4724 31.3667 86.5779 31.1908 86.701 31.015C86.824 30.8392 86.9999 30.681 87.2284 30.5051C87.457 30.3293 87.7032 30.1886 88.0021 30.0831C88.301 29.9601 88.6526 29.8722 89.0922 29.8018C89.5317 29.7315 90.0065 29.6963 90.5339 29.6963H90.8856C91.4131 29.6963 91.8878 29.7315 92.3274 29.8018C92.7669 29.8722 93.1186 29.9601 93.4175 30.0831C93.7164 30.2062 93.9625 30.3469 94.1911 30.5051C94.4197 30.6634 94.5779 30.8392 94.7186 31.015C94.8416 31.1908 94.9471 31.3667 95.0175 31.5777C95.0878 31.7886 95.1405 31.9645 95.1757 32.1227C95.1933 32.281 95.2109 32.4568 95.2109 32.6326V32.8788ZM104.952 35.7447H102.648C102.595 35.6919 102.578 35.5865 102.578 35.4282V34.7425C102.578 34.3908 102.49 34.1271 102.297 33.9689C102.121 33.793 101.804 33.7227 101.365 33.7227H99.2021V35.7447H96.9339V29.8194H102.314C103.985 29.8194 104.811 30.3293 104.811 31.3491V31.437C104.811 31.648 104.776 31.8238 104.688 31.982C104.6 32.1403 104.512 32.281 104.371 32.3865C104.231 32.4919 104.108 32.5623 103.985 32.6326C103.861 32.6853 103.738 32.7381 103.598 32.7733C103.967 32.8612 104.266 33.0194 104.494 33.2656C104.705 33.5117 104.828 33.8106 104.828 34.1799V35.059C104.828 35.3755 104.864 35.5865 104.934 35.7271V35.7623L104.952 35.7447ZM113.725 31.437H111.176V35.7447H108.908V31.437H106.358V29.8194H113.725V31.437ZM123.202 33.8458C123.202 34.0568 123.167 34.2678 123.114 34.4436C123.061 34.6194 122.956 34.7952 122.798 34.9887C122.639 35.1645 122.428 35.3227 122.165 35.4458C121.901 35.5689 121.549 35.6744 121.092 35.7447C120.653 35.815 120.125 35.8678 119.527 35.8678H118.807C116.398 35.8678 115.202 35.1645 115.202 33.7579V33.67H117.681C117.716 34.2326 118.209 34.5139 119.158 34.5139H119.228C119.527 34.5139 119.791 34.5139 119.985 34.4788C120.196 34.4436 120.336 34.4084 120.424 34.3557C120.512 34.3029 120.582 34.2326 120.618 34.1799C120.653 34.1271 120.67 34.0392 120.67 33.9689C120.67 33.8458 120.635 33.7579 120.582 33.6875C120.53 33.6172 120.389 33.5645 120.178 33.5117C119.967 33.459 119.668 33.4238 119.264 33.4238L118.174 33.3886C116.239 33.3359 115.272 32.7381 115.272 31.6128V31.5425C115.272 31.3315 115.308 31.1557 115.36 30.9799C115.413 30.804 115.519 30.6458 115.677 30.4875C115.835 30.3293 116.028 30.1886 116.275 30.0831C116.521 29.9776 116.855 29.8897 117.259 29.8194C117.664 29.7491 118.138 29.7139 118.666 29.7139H119.369C121.76 29.7139 122.974 30.3293 122.974 31.5777V31.648H120.512C120.459 31.226 119.985 31.015 119.07 31.015H118.982C118.613 31.015 118.332 31.0326 118.121 31.0853C117.91 31.1381 117.787 31.1733 117.752 31.2436C117.716 31.3139 117.681 31.3667 117.681 31.4546C117.681 31.5601 117.716 31.6304 117.769 31.6832C117.822 31.7359 117.945 31.7886 118.156 31.8414C118.349 31.8941 118.631 31.9117 118.982 31.9117H120.055C121.18 31.9645 121.971 32.1227 122.464 32.404C122.956 32.6853 123.185 33.1249 123.185 33.7227V33.8282L123.202 33.8458Z" fill="white"/>
<path id="Vector_8" d="M15.5429 21.3099L14.2418 19.6748L9.26595 9.63518L13.8725 1.31868L14.9099 0.0175781H9.37144L9.44177 1.03736L5.64396 8.05276H4.9055V1.28352L5.53847 0.0175781H0L0.65055 1.28352V20.0264L0 21.3099H5.53847L4.9055 20.0264V12.3253H5.59122L9.44177 20.255L9.37144 21.3099H15.5429Z" fill="white"/>
<path id="Vector_9" d="M20.0117 0.0175781L20.6447 1.28352V20.0264L20.0117 21.2923H25.5502L24.9172 20.0264V15.0682H26.4117L28.1876 19.9209L28.0996 21.2923H33.8491L32.7238 19.6748L30.8073 14.7165L33.4271 12.0967V3.00659L30.4381 0.0175781H20.0117ZM24.8996 4.27253H29.1546V10.8132H24.8996V4.27253Z" fill="white"/>
<path id="Vector_10" d="M55.3304 21.3099L54.7853 20.1319L49.7567 1.24835L50.2139 0.0175781H43.3919L43.849 1.24835L38.8204 20.1319L38.2754 21.3099H43.6029L43.3567 19.7275L43.9018 17.6528H49.704L50.249 19.7275L50.0029 21.3099H55.3304ZM44.9743 13.5736L46.8205 6.5055L48.6666 13.5736H44.9919H44.9743Z" fill="white"/>
<path id="Vector_11" d="M118.947 21.3099L118.314 20.0264V9.86375L122.78 21.3099H127.896L127.246 20.0264V1.28352L127.896 0.0175781H122.358L122.991 1.28352V11.4637L118.525 0.0175781H113.408L114.059 1.28352V20.0264L113.408 21.3099H118.947Z" fill="white"/>
<path id="Vector_12" d="M65.6889 21.3099L65.0559 20.0264V12.8352H69.3108L70.5944 13.4681V7.92968L69.3108 8.58023H65.0559V4.27253H71.4383L72.7218 4.9055V0.0175781H60.1504L60.7834 1.28352V20.0264L60.1504 21.3099H65.6889Z" fill="white"/>
<path id="Vector_13" d="M86.7856 21.3099L86.135 20.0264V4.27253H89.546L90.8295 4.9055V0.0175781H77.2207V4.9055L78.4866 4.27253H81.8801V20.0264L81.2471 21.3099H86.7856Z" fill="white"/>
<path id="Vector_14" d="M105.53 21.3099L108.519 18.3209V2.98902L105.53 0H98.2859L95.2969 2.98902V18.3209L98.2859 21.3099H105.53ZM99.5694 17.055V4.29012H104.246V17.055H99.5694Z" fill="white"/>
</g>
</svg>
