<svg width="44" height="30" viewBox="0 0 44 30" fill="none" xmlns="http://www.w3.org/2000/svg">
<g id="BGMI logo 2 1" clip-path="url(#clip0_121_12196)">
<g id="Group">
<g id="Layer_1">
<g id="Group_2">
<g id="Group_3">
<path id="Vector" d="M42.9125 30H1.08754C0.475798 30 0 29.4943 0 28.8966V1.10345C0 0.505747 0.498455 0 1.08754 0H42.9125C43.5242 0 44 0.505747 44 1.10345V28.8736C44 29.4943 43.5015 29.977 42.9125 29.977V30ZM2.17508 27.7931H41.8476V2.2069H2.17508V27.8161V27.7931Z" fill="#111111"/>
<g id="Group_4">
<path id="Vector_2" d="M10.5805 19.0575H4.55371V4.48276H10.5805C11.8719 4.48276 12.7556 5.37931 12.7556 6.68965V9.88506C12.7556 10.7356 12.3704 11.4023 11.736 11.5632V11.6092C12.3704 11.7701 12.7556 12.4598 12.7556 13.3103V16.8276C12.7556 18.1379 11.8719 19.0345 10.5805 19.0345V19.0575ZM9.6742 10.2069V7.47126C9.6742 7.42529 9.67421 7.4023 9.60623 7.4023H7.61241V10.2759H9.60623C9.65155 10.2759 9.6742 10.2759 9.6742 10.2069ZM9.6742 16.069V13.0345C9.6742 12.9885 9.67421 12.9655 9.60623 12.9655H7.61241V16.1379H9.60623C9.65155 16.1379 9.6742 16.1379 9.6742 16.069Z" fill="#111111"/>
<path id="Vector_3" d="M20.391 19.1034H16.5393C15.2479 19.1034 14.3643 18.2069 14.3643 16.8966V6.64368C14.3643 5.33333 15.2479 4.43678 16.5393 4.43678H20.391C21.6825 4.43678 22.5661 5.33333 22.5661 6.64368V9.17242H19.4848V7.47127C19.4848 7.42529 19.4848 7.4023 19.4168 7.4023H17.4909C17.4456 7.4023 17.423 7.4023 17.423 7.47127V16.092C17.423 16.1379 17.423 16.1609 17.4909 16.1609H19.4168C19.4621 16.1609 19.4848 16.1609 19.4848 16.092V13.6552H18.1933V10.7356H22.5661V16.8966C22.5661 18.2069 21.6825 19.1034 20.391 19.1034Z" fill="#111111"/>
<path id="Vector_4" d="M31.8104 19.0575V11.8851L31.7425 12.2529L30.0432 19.0575H28.865L27.1884 12.2529L27.1204 11.8851V19.0575H24.1523V4.48276H27.7095L29.4768 11.7011L31.244 4.48276H34.8012V19.0575H31.8331H31.8104Z" fill="#111111"/>
<path id="Vector_5" d="M36.3867 19.0575V4.48276H39.4681V19.0575H36.3867Z" fill="#111111"/>
</g>
</g>
<g id="Group_5">
<path id="Vector_6" d="M27.3237 21.977H26.7119V23.6782H27.3237V21.977Z" fill="#111111"/>
<path id="Vector_7" d="M19.5078 23.2414H19.9836L19.7344 22.2759L19.5078 23.2414Z" fill="#111111"/>
<path id="Vector_8" d="M17.4004 21.977H16.834V22.8506H17.4004V21.977Z" fill="#111111"/>
<path id="Vector_9" d="M4.55371 20.1839V25.5172H39.4682V20.1839H4.55371ZM14.7947 24.2759V24.1379L14.2962 23.0805H14.2056V24.1149L14.2962 24.2759H13.5712L13.6618 24.1149V21.6092L13.5712 21.4483H14.2962L14.2056 21.6092V22.5058H14.2962L14.7947 21.5632V21.4253H15.5197L15.3838 21.6092L14.772 22.7126L15.4291 24.046L15.6104 24.2759H14.7947ZM17.2643 24.2759V24.092L17.0377 23.4483H16.8338V24.1149L16.9245 24.2759H16.1994L16.2901 24.1149V21.6092L16.1994 21.4483H17.5815L17.9667 21.8391V23.0575L17.6268 23.4023L17.8761 24.069L18.0347 24.2759H17.2643ZM20.1644 24.2759V24.069C20.1871 24.069 20.1191 23.7931 20.1191 23.7931H19.3488L19.2808 24.069V24.2759C19.3035 24.2759 18.6011 24.2759 18.6011 24.2759L18.6691 24.1149L19.3261 21.5862L19.2581 21.4253H20.1644L20.0964 21.5862L20.7535 24.1149L20.8215 24.2759H20.1191H20.1644ZM23.1552 22.069L22.9966 21.977H22.1582V22.5517H22.7247L22.8833 22.4598V23.1954L22.7247 23.1035H22.1582V24.069L22.2489 24.2299H21.5238L21.6145 24.069V21.5632L21.5238 21.4023H23.1778V22.069H23.1552ZM25.5568 22.069L25.3982 21.977H24.9451V24.092L25.0357 24.2529H24.3107L24.4013 24.092V21.977H23.9481L23.7895 22.069V21.4023H25.5795V22.069H25.5568ZM27.8905 23.8621L27.5053 24.2529H26.5537L26.1685 23.8621V21.8161L26.5537 21.4253H27.5053L27.8905 21.8161V23.8621ZM30.4507 24.2759H29.771L29.1819 22.7356V24.092L29.2726 24.2529H28.5475L28.6382 24.092V21.5862L28.5475 21.4253H29.2272L29.8163 22.9655V21.6092L29.7257 21.4483H30.4507L30.3601 21.6092V24.1149L30.4507 24.2759Z" fill="#111111"/>
</g>
</g>
</g>
</g>
</g>
<defs>
<clipPath id="clip0_121_12196">
<rect width="44" height="30" fill="white"/>
</clipPath>
</defs>
</svg>
