<svg width="24" height="24" viewBox="0 0 24 24" fill="none" xmlns="http://www.w3.org/2000/svg">
<g id="Lock closed">
<path id="Icon" fill-rule="evenodd" clip-rule="evenodd" d="M5.99961 10.8V8.39999C5.99961 5.08629 8.6859 2.39999 11.9996 2.39999C15.3133 2.39999 17.9996 5.08629 17.9996 8.39999V10.8C19.3251 10.8 20.3996 11.8745 20.3996 13.2V19.2C20.3996 20.5255 19.3251 21.6 17.9996 21.6H5.99961C4.67413 21.6 3.59961 20.5255 3.59961 19.2V13.2C3.59961 11.8745 4.67413 10.8 5.99961 10.8ZM15.5996 8.39999V10.8H8.39961V8.39999C8.39961 6.41177 10.0114 4.79999 11.9996 4.79999C13.9878 4.79999 15.5996 6.41177 15.5996 8.39999Z" fill="white"/>
</g>
</svg>
