<svg width="16" height="17" viewBox="0 0 16 17" fill="none" xmlns="http://www.w3.org/2000/svg">
<g id="heroicons-micro/video-camera">
<g id="Union">
<path d="M3 4.4126C1.89543 4.4126 1 5.30803 1 6.4126V10.4126C1 11.5172 1.89543 12.4126 3 12.4126H8C9.10457 12.4126 10 11.5172 10 10.4126V6.4126C10 5.30803 9.10457 4.4126 8 4.4126H3Z" fill="#DC2626"/>
<path d="M15 5.16262C15 4.85927 14.8173 4.5858 14.537 4.46971C14.2568 4.35362 13.9342 4.41779 13.7197 4.63229L11.7197 6.63229C11.579 6.77294 11.5 6.96371 11.5 7.16262V9.66262C11.5 9.86153 11.579 10.0523 11.7197 10.1929L13.7197 12.1929C13.9342 12.4074 14.2568 12.4716 14.537 12.3555C14.8173 12.2394 15 11.966 15 11.6626V5.16262Z" fill="#DC2626"/>
</g>
</g>
</svg>
